<?xml version="1.0" standalone="no"?>
<!DOCTYPE svg PUBLIC "-//W3C//DTD SVG 20010904//EN"
 "http://www.w3.org/TR/2001/REC-SVG-20010904/DTD/svg10.dtd">
<svg version="1.0" xmlns="http://www.w3.org/2000/svg"
 width="2000.000000pt" height="2000.000000pt" viewBox="0 0 2000.000000 2000.000000"
 preserveAspectRatio="xMidYMid meet">
<metadata>
Created by potrace 1.14, written by Peter Selinger 2001-2017
</metadata>
<g transform="translate(0.000000,2000.000000) scale(0.100000,-0.100000)"
fill="#000000" stroke="none">
<path d="M9167 19989 c-162 -14 -301 -40 -557 -105 -140 -35 -262 -67 -271
-72 -13 -5 33 -48 198 -182 370 -302 471 -420 357 -420 -75 0 -224 72 -509
248 -287 178 -354 198 -467 145 -77 -37 -162 -111 -308 -265 -259 -274 -530
-452 -717 -472 -83 -9 -247 -61 -478 -153 -293 -116 -509 -214 -994 -447 -685
-330 -1053 -446 -1123 -354 -39 50 -39 50 -95 46 -282 -24 -1317 -898 -1499
-1266 -15 -32 -33 -89 -40 -129 -36 -204 -277 -594 -684 -1108 -1051 -1326
-1616 -2618 -1854 -4240 -88 -596 -120 -1105 -120 -1865 0 -546 5 -698 40
-1070 77 -835 271 -1576 619 -2360 145 -326 389 -800 593 -1150 1048 -1797
3154 -3461 5407 -4273 456 -164 912 -289 1290 -351 1226 -203 3118 -192 4185
24 427 87 1137 315 1681 540 2302 955 4099 2604 5180 4752 326 648 584 1319
728 1896 266 1058 340 2374 201 3567 -93 794 -258 1409 -595 2223 -674 1631
-1661 2976 -2925 3987 -1097 877 -2334 1484 -3855 1890 -461 123 -935 270
-1330 412 -264 95 -405 154 -645 268 -366 175 -629 252 -965 285 -115 11 -320
11 -448 -1z m-324 -161 c49 -25 267 -198 350 -277 102 -97 122 -128 107 -165
-31 -81 -180 39 -397 320 -106 135 -113 151 -60 122z m775 -55 c54 -25 129
-105 157 -165 48 -103 25 -198 -49 -198 -130 0 -297 232 -242 338 8 16 21 32
28 35 27 11 71 6 106 -10z m2431 -1158 c385 -56 1042 -292 1941 -695 1559
-701 2910 -1832 3905 -3270 541 -782 987 -1725 1199 -2530 131 -502 221 -1129
256 -1785 13 -247 13 -928 0 -1165 -54 -980 -204 -1798 -454 -2488 -358 -983
-880 -1899 -1536 -2697 -388 -472 -875 -952 -1360 -1340 -860 -689 -1872
-1241 -2955 -1611 -841 -287 -1694 -465 -2530 -526 -218 -15 -841 -15 -1055 0
-1608 119 -3092 583 -4421 1382 -694 417 -1298 889 -1874 1465 -469 468 -838
917 -1192 1446 -832 1248 -1312 2591 -1439 4019 -21 246 -29 789 -15 1035 87
1471 590 3165 1306 4390 240 412 564 846 825 1105 188 187 268 190 584 20 211
-113 306 -180 422 -295 110 -109 154 -180 161 -263 11 -116 -106 -181 -329
-182 -76 0 -118 -13 -118 -35 0 -26 87 -111 241 -236 281 -228 281 -232 -17
-149 -98 28 -199 54 -224 57 -43 6 -44 5 -30 -12 8 -10 92 -75 185 -145 263
-196 441 -365 736 -701 405 -460 795 -1003 964 -1339 62 -124 84 -188 96 -285
13 -104 51 -186 120 -256 195 -199 577 -333 1144 -401 149 -18 797 -18 960 0
318 35 578 85 870 168 621 178 900 314 982 482 26 53 28 65 27 172 -1 145 -6
162 -204 685 -257 676 -254 663 -255 1002 -1 218 -2 235 -21 260 -47 62 -138
27 -208 -79 -55 -83 -84 -186 -96 -334 -11 -151 -20 -186 -67 -277 -84 -160
-237 -257 -488 -310 -155 -32 -452 -29 -730 7 -253 33 -476 44 -558 26 -134
-27 -182 -141 -118 -275 61 -127 165 -213 382 -311 142 -64 179 -86 179 -109
0 -16 -14 -22 -81 -30 -155 -19 -348 70 -498 231 -117 125 -185 249 -227 414
-27 104 -44 142 -111 243 -124 186 -326 417 -706 805 -405 414 -608 654 -777
921 -133 210 -247 473 -280 646 -38 206 -30 374 29 623 63 264 83 421 86 677
3 198 5 226 25 277 86 227 309 394 950 713 713 353 1371 565 1481 476 22 -17
22 -21 10 -61 -27 -92 -158 -181 -351 -240 -128 -39 -154 -52 -203 -99 -51
-49 -72 -119 -63 -215 4 -39 27 -156 51 -261 58 -250 107 -492 145 -712 52
-302 89 -487 152 -768 33 -148 70 -341 83 -427 13 -92 29 -168 39 -182 46 -72
167 -122 325 -137 226 -21 362 -60 565 -161 145 -73 257 -145 413 -266 290
-225 482 -322 728 -368 130 -24 343 -15 485 21 307 77 604 245 1048 594 353
277 515 387 732 495 253 126 366 154 663 166 358 15 423 43 434 184 3 34 -2
101 -11 151 -38 214 -5 421 90 562 65 96 81 131 94 201 14 81 1 154 -44 241
-82 158 -136 432 -136 693 -1 194 -27 323 -83 404 -48 70 -122 106 -277 138
-153 32 -251 76 -319 144 -75 75 -90 162 -40 226 56 72 179 91 388 61z m-3459
-421 c77 -22 219 -97 309 -164 65 -48 178 -161 413 -414 25 -28 48 -49 51 -46
2 3 55 77 117 165 63 88 127 175 143 194 223 259 707 355 1112 220 255 -85
394 -227 500 -514 101 -271 153 -644 126 -897 -29 -264 -98 -388 -287 -514
-114 -76 -212 -118 -352 -153 -168 -42 -210 -66 -258 -153 l-29 -53 0 -250 c0
-286 -7 -325 -81 -484 -221 -472 -833 -743 -1354 -599 -188 51 -371 170 -470
303 -134 181 -204 392 -220 660 -15 255 -46 344 -154 450 -68 67 -132 104
-284 164 -154 62 -219 97 -279 153 -115 110 -138 220 -130 623 8 375 28 485
122 675 142 290 397 528 659 615 138 46 230 51 346 19z m3422 -474 c46 -13
105 -77 114 -125 16 -86 -52 -177 -140 -190 -37 -6 -55 -3 -93 16 -68 34 -88
67 -88 142 0 75 27 120 89 148 47 21 67 23 118 9z m-4952 -180 c18 -20 33 -51
41 -87 11 -48 10 -65 -4 -122 -10 -36 -32 -90 -50 -119 -31 -53 -98 -122 -116
-122 -17 0 -50 50 -71 108 -71 188 -5 371 133 372 31 0 45 -7 67 -30z m-2780
-718 c77 -77 50 -295 -44 -367 -65 -49 -164 -27 -219 47 -57 77 11 243 132
319 58 37 94 37 131 1z"/>
<path d="M12698 16540 c-9 -5 -25 -31 -35 -58 -26 -69 -22 -287 16 -736 17
-203 28 -372 26 -375 -3 -2 -177 -17 -387 -32 -449 -32 -470 -35 -608 -61
-338 -64 -608 -213 -895 -494 -287 -280 -580 -818 -790 -1449 -146 -437 -225
-852 -225 -1181 0 -373 -135 -698 -390 -937 -169 -159 -352 -279 -665 -437
-237 -120 -304 -149 -1105 -482 l-575 -238 -515 149 c-772 224 -967 268 -1360
302 -174 15 -616 6 -760 -16 -989 -149 -1750 -672 -2432 -1670 -353 -516 -408
-746 -408 -1695 0 -645 28 -944 116 -1252 97 -337 344 -819 619 -1203 625
-874 1796 -1973 2707 -2542 697 -435 1493 -772 2293 -972 887 -221 1812 -311
3085 -298 646 7 1005 26 1320 73 292 43 1061 271 1550 459 1786 689 3270 1815
4282 3250 763 1081 1228 2307 1362 3595 49 469 50 1116 1 1680 -132 1519 -611
2676 -1589 3845 -425 508 -871 937 -1344 1292 -559 420 -1136 730 -1877 1006
-126 47 -466 174 -755 282 -535 200 -616 224 -662 195z m1107 -675 c289 -41
578 -134 932 -299 791 -370 1714 -1030 2192 -1570 235 -265 710 -907 949
-1282 173 -272 236 -402 225 -468 -8 -48 -26 -55 -67 -25 -72 52 -174 187
-456 604 -245 363 -320 467 -468 654 -547 689 -1203 1210 -2072 1645 -395 197
-728 338 -1210 511 -298 107 -399 162 -374 203 27 42 167 53 349 27z m417
-2302 c73 -80 129 -191 152 -306 36 -173 7 -370 -104 -712 -94 -287 -109 -401
-70 -527 33 -108 103 -192 435 -528 171 -173 353 -366 403 -428 503 -620 757
-1289 831 -2187 12 -135 54 -1218 49 -1243 -2 -9 -29 177 -61 413 -104 773
-164 1111 -272 1530 -71 276 -120 416 -214 610 -202 417 -495 822 -837 1155
-261 254 -475 405 -755 531 -267 120 -385 131 -616 54 -268 -89 -885 -404
-1002 -510 -28 -26 -32 -35 -23 -51 26 -48 307 -225 655 -413 334 -179 500
-285 768 -488 606 -458 1167 -1088 1476 -1658 207 -382 372 -825 308 -825 -58
0 -352 214 -730 530 -339 284 -520 419 -850 636 -381 249 -668 413 -1087 619
-630 310 -865 473 -969 675 -34 67 -39 237 -10 344 28 102 44 131 105 192 64
63 77 99 83 239 4 92 1 130 -21 235 -38 186 -49 300 -43 440 6 138 27 220 76
306 66 115 143 108 384 -34 256 -151 362 -144 588 37 106 85 178 164 244 266
115 176 163 310 176 493 9 137 27 211 67 285 59 109 167 114 204 9 22 -65 14
-238 -21 -412 -39 -201 -54 -320 -49 -387 11 -129 69 -80 155 132 59 144 114
334 182 627 33 142 65 265 71 275 15 24 7 -131 -24 -487 -45 -496 -46 -645 -5
-692 l19 -23 40 43 c46 51 89 156 125 305 40 167 55 287 70 587 18 372 30 414
97 343z m-2793 -3239 c69 -87 5 -329 -125 -472 -89 -99 -187 -130 -241 -76
-22 23 -25 31 -19 71 13 96 125 311 215 414 78 90 133 110 170 63z m-5909
-369 c289 -36 440 -96 482 -193 24 -54 19 -93 -25 -177 -40 -76 -193 -230
-342 -345 -409 -314 -653 -516 -897 -742 -92 -85 -208 -184 -258 -219 -109
-77 -301 -181 -390 -210 -297 -99 -502 -345 -504 -605 -1 -114 32 -134 164
-98 74 21 110 9 136 -44 25 -53 30 -217 11 -413 -27 -277 -28 -301 -17 -408
18 -190 69 -334 174 -496 156 -239 475 -575 546 -575 46 0 68 83 50 193 -23
145 -78 243 -175 313 -157 112 -186 217 -84 309 59 53 131 83 271 112 68 14
150 36 183 50 197 83 397 281 454 451 26 75 26 125 2 178 -61 133 -187 109
-316 -61 -92 -122 -184 -172 -240 -131 -25 18 -15 72 26 133 50 75 191 207
357 336 332 258 496 472 526 688 28 196 101 261 315 280 58 5 136 18 172 29
108 32 189 110 189 182 0 13 6 33 14 43 14 19 16 18 50 -18 32 -35 54 -75 150
-278 27 -57 61 -97 73 -86 3 4 10 51 16 104 14 149 25 196 60 254 57 95 147
125 209 70 46 -41 50 -118 14 -231 -14 -45 -26 -94 -26 -110 0 -33 26 -64 47
-56 8 3 19 6 24 6 16 0 91 73 116 114 38 59 63 141 73 239 10 102 44 176 95
207 60 37 188 20 214 -28 31 -57 -2 -158 -133 -415 -116 -226 -136 -278 -116
-302 21 -25 88 -18 236 25 92 26 159 40 197 40 53 0 62 -3 92 -33 58 -58 75
-172 75 -512 0 -424 -42 -709 -152 -1040 -170 -513 -489 -923 -929 -1196 -106
-66 -314 -166 -443 -214 -138 -51 -376 -110 -547 -136 -171 -26 -486 -31 -639
-10 -819 112 -1504 589 -1863 1298 -154 304 -224 578 -234 923 -17 546 115
947 412 1258 212 223 420 356 871 560 308 139 414 201 414 239 0 29 -53 38
-240 37 -152 0 -204 -4 -290 -23 -364 -77 -653 -240 -925 -522 -158 -164 -272
-325 -376 -532 -122 -242 -192 -457 -240 -738 -27 -158 -37 -503 -20 -675 17
-165 63 -389 106 -514 78 -223 238 -503 411 -720 91 -113 317 -344 429 -438
438 -368 871 -572 1344 -633 714 -91 1420 54 2019 415 696 419 1197 1102 1387
1891 64 262 79 396 79 705 1 325 -5 380 -84 785 -72 366 -84 463 -78 608 8
174 46 234 198 315 120 64 203 85 319 80 90 -3 105 -7 176 -42 58 -28 99 -59
155 -115 154 -153 257 -344 395 -736 188 -532 446 -1031 848 -1638 413 -625
838 -1166 1478 -1882 356 -400 535 -638 652 -871 146 -290 117 -470 -86 -541
-81 -28 -390 -25 -552 5 -165 31 -425 99 -640 168 -330 105 -389 122 -518 148
-560 113 -1120 74 -1289 -91 -39 -38 -55 -84 -43 -122 22 -69 300 -131 589
-131 257 0 439 -40 482 -104 24 -37 -1 -75 -73 -114 -119 -63 -291 -94 -623
-111 -211 -11 -346 -32 -560 -88 -463 -120 -934 -333 -1091 -494 -78 -81 -77
-148 3 -170 162 -43 627 124 993 358 147 94 235 137 376 184 137 46 251 58
257 27 8 -38 -159 -182 -358 -310 -47 -30 -159 -98 -250 -153 -336 -200 -574
-372 -610 -439 -12 -24 -12 -29 0 -37 19 -12 82 -4 195 26 137 36 289 98 489
200 203 104 324 155 471 197 130 38 222 47 231 24 20 -52 -152 -174 -563 -399
-117 -63 -255 -143 -307 -177 -86 -56 -176 -137 -176 -159 0 -42 154 -48 310
-11 154 37 343 106 504 185 161 79 304 127 501 168 246 52 445 74 775 87 460
18 820 75 1227 195 162 48 235 75 488 180 358 149 735 255 990 279 176 17 230
32 311 84 94 61 138 126 188 279 48 144 154 275 235 289 98 16 112 37 59 91
-18 19 -79 66 -135 104 -55 38 -107 76 -114 85 -22 26 7 39 101 44 97 6 116
15 107 53 -14 52 -108 128 -386 309 -479 312 -642 635 -1056 2092 -129 454
-221 697 -375 992 -341 653 -810 1159 -1307 1409 -118 59 -257 106 -458 154
-208 50 -365 138 -365 203 0 33 80 103 147 128 72 28 221 38 319 21 93 -17
207 -62 281 -113 34 -24 239 -182 455 -353 495 -390 601 -493 790 -770 272
-397 524 -1010 777 -1890 70 -243 107 -356 159 -490 102 -259 247 -511 407
-710 82 -102 260 -278 350 -346 296 -226 647 -365 1005 -399 328 -31 433 -44
516 -65 91 -23 167 -55 179 -75 16 -26 -13 -70 -108 -164 -324 -320 -1321
-1025 -1992 -1408 -678 -387 -1140 -526 -2870 -863 -504 -98 -564 -106 -890
-112 -444 -9 -772 24 -1550 153 -1045 173 -1832 433 -2725 900 -1150 602
-2159 1481 -2802 2439 -439 657 -704 1333 -783 2005 -29 246 -16 627 30 863
134 694 516 1302 1082 1724 421 314 908 501 1463 562 129 15 741 5 890 -14z
m5037 -3001 c50 -37 73 -82 73 -141 0 -131 -109 -136 -246 -10 -67 61 -89 99
-74 127 6 11 12 20 13 20 1 0 20 7 42 15 56 21 157 15 192 -11z m6946 -1834
c47 -14 77 -42 77 -73 0 -58 -99 -222 -325 -537 -273 -380 -406 -550 -518
-658 -129 -124 -184 -128 -208 -15 -15 72 1 292 31 428 76 342 255 644 468
789 111 76 155 87 307 82 72 -3 147 -10 168 -16z m-3906 -1657 c42 -101 -57
-439 -154 -523 -39 -34 -46 -36 -63 -15 -29 35 9 279 67 424 58 147 117 192
150 114z"/>
<path d="M10195 17863 c-167 -35 -290 -115 -495 -323 -177 -178 -220 -206
-300 -197 -80 10 -143 47 -460 271 -293 207 -461 255 -640 182 -75 -30 -211
-110 -253 -149 -27 -25 -29 -30 -15 -43 18 -18 153 -34 300 -34 135 0 234 -13
374 -50 201 -53 326 -115 478 -236 110 -87 178 -124 234 -124 63 0 94 21 157
105 154 204 447 328 775 328 180 0 248 -17 439 -108 176 -84 196 -85 145 -9
-101 151 -235 279 -348 335 -135 66 -253 82 -391 52z"/>
<path d="M10180 17384 c-288 -77 -531 -355 -488 -557 33 -157 243 -257 481
-227 285 35 521 219 567 442 14 68 6 117 -28 181 -30 56 -65 88 -133 123 -104
52 -282 69 -399 38z"/>
<path d="M8369 17340 c-168 -27 -308 -112 -365 -222 -9 -18 -19 -60 -22 -95
-4 -54 -1 -70 22 -117 81 -165 359 -300 646 -313 134 -6 203 5 290 48 143 72
155 185 43 402 -100 194 -248 287 -478 301 -44 3 -105 1 -136 -4z"/>
</g>
</svg>
